<?xml version="1.0" encoding="utf-8"?>
<!-- Generator: Adobe Illustrator 16.0.0, SVG Export Plug-In . SVG Version: 6.00 Build 0)  -->
<!DOCTYPE svg PUBLIC "-//W3C//DTD SVG 1.1//EN" "http://www.w3.org/Graphics/SVG/1.1/DTD/svg11.dtd">
<svg version="1.1" xmlns="http://www.w3.org/2000/svg" xmlns:xlink="http://www.w3.org/1999/xlink" x="0px" y="0px"
	 width="85.039px" height="85.038px" viewBox="0 0 85.039 85.038" enable-background="new 0 0 85.039 85.038" xml:space="preserve">
<g id="Layer_2">
</g>
<g id="Layer_3">
</g>
<g id="Layer_4">
	
		<image display="none" overflow="visible" opacity="0.5" width="150" height="160" xlink:href="B1BC2BA5.jpg"  transform="matrix(0.8033 0 0 0.8033 -171.7388 -305.9004)">
	</image>
	
		<image display="none" overflow="visible" opacity="0.5" width="150" height="160" xlink:href="B1BC2BA7.jpg"  transform="matrix(0.8033 0 0 0.8033 -9.7388 -305.9004)">
	</image>
	
		<image display="none" overflow="visible" opacity="0.5" width="150" height="160" xlink:href="B1BC2BA2.jpg"  transform="matrix(0.8033 0 0 0.8033 -172.7388 -167.9023)">
	</image>
	
		<image display="none" overflow="visible" opacity="0.5" width="150" height="160" xlink:href="B1BC2BA3.jpg"  transform="matrix(0.8033 0 0 0.8033 -172.7388 -15.9023)">
	</image>
	<g>
		<g>
			<path d="M-150.545,30.689l-0.196,0.516l1.299,0.493l-0.214,0.565l-4.06-1.54l0.47-1.239c0.177-0.335,0.424-0.58,0.741-0.736
				c0.38-0.188,0.76-0.21,1.139-0.065c0.382,0.145,0.654,0.413,0.815,0.805c0.11,0.271,0.157,0.464,0.141,0.578l1.755-0.443
				l-0.26,0.686L-150.545,30.689z M-152.974,30.358l1.705,0.646l0.195-0.516c0.095-0.251,0.094-0.498-0.005-0.739
				c-0.099-0.244-0.267-0.41-0.503-0.5c-0.235-0.089-0.469-0.075-0.703,0.041s-0.398,0.301-0.494,0.552L-152.974,30.358z"/>
			<path d="M-149.263,22.106l0.467,0.313l-1.064,1.589l1.103,0.738l1.064-1.589l0.467,0.313l-1.064,1.589l1.103,0.738l1.064-1.588
				l0.469,0.313l-1.401,2.092l-3.607-2.415L-149.263,22.106z"/>
			<path d="M-143.538,21.941l-0.557-2.73l-2.244-0.596l0.506-0.478l1.607,0.428l-0.329-1.634l0.506-0.477l0.459,2.278l2.698,0.712
				l-0.505,0.477l-2.062-0.543l0.426,2.086L-143.538,21.941z"/>
			<path d="M-133.811,10.379l3.17,3.42l-0.598,0.234l-1.122-1.209l-1.153,0.453l0.005,1.648l-0.601,0.235l-0.006-4.661
				L-133.811,10.379z M-132.77,12.381l-0.745-0.799l0.003,1.091L-132.77,12.381z"/>
			<path d="M-128.022,8.642l0.545-0.089l2.401,2.748l-0.499-3.059l0.6-0.098l0.698,4.285l-0.521,0.085l-2.433-2.781l0.504,3.096
				l-0.597,0.098L-128.022,8.642z"/>
			<path d="M-119.919,7.901c0.758,0.034,1.342,0.258,1.75,0.67c0.448,0.454,0.66,0.986,0.635,1.598
				c-0.024,0.613-0.277,1.127-0.76,1.542c-0.44,0.379-1.039,0.556-1.798,0.529l-0.444-0.018l0.172-4.339L-119.919,7.901z
				 M-119.781,8.48l-0.127,3.196c0.48,0.02,0.88-0.108,1.199-0.384c0.359-0.309,0.548-0.69,0.566-1.148
				c0.018-0.455-0.14-0.852-0.473-1.189C-118.913,8.658-119.301,8.5-119.781,8.48z"/>
			<path d="M-106.025,10.838l-0.121,4.662l-0.592-0.25l0.042-1.649l-1.141-0.481l-1.149,1.183l-0.594-0.251l3.253-3.34
				L-106.025,10.838z M-106.68,12.998l0.027-1.094l-0.761,0.784L-106.68,12.998z"/>
			<path d="M-101.44,16.728l-0.453-0.316l-0.796,1.139l-0.496-0.347l2.488-3.558l1.086,0.76c0.281,0.254,0.458,0.554,0.533,0.898
				c0.088,0.415,0.016,0.788-0.217,1.12c-0.234,0.335-0.561,0.533-0.981,0.593c-0.29,0.04-0.488,0.038-0.595-0.006l-0.001,1.811
				l-0.601-0.42L-101.44,16.728z M-100.524,14.454l-1.045,1.494l0.452,0.316c0.22,0.154,0.46,0.213,0.719,0.177
				s0.461-0.158,0.607-0.365c0.144-0.206,0.188-0.437,0.133-0.692c-0.056-0.255-0.194-0.459-0.414-0.613L-100.524,14.454z"/>
			<path d="M-94.693,18.592l-3.09,3.05l-0.425-0.43l3.09-3.05L-94.693,18.592z"/>
			<path d="M-90.283,24.216l-0.466,0.313l-1.066-1.587l-1.102,0.739l1.067,1.588l-0.466,0.313l-1.067-1.588l-1.102,0.74l1.067,1.588
				l-0.468,0.314l-1.404-2.09l3.604-2.421L-90.283,24.216z"/>
			<path d="M-92.229,29.854l4.044-1.579l0.22,0.563l-3.519,1.373l0.607,1.557l-0.525,0.205L-92.229,29.854z"/>
		</g>
		<g>
			<path d="M-149.039,57.141l0.236,0.499l-1.978,3.067l2.802-1.324l0.259,0.549l-3.925,1.855l-0.226-0.478l2.001-3.107l-2.836,1.341
				l-0.259-0.545L-149.039,57.141z"/>
			<path d="M-145.3,64.601c-0.079,0.633-0.366,1.129-0.863,1.488c-0.497,0.358-1.059,0.477-1.684,0.352
				c-0.625-0.124-1.132-0.454-1.518-0.989c-0.387-0.535-0.541-1.119-0.462-1.752s0.366-1.129,0.863-1.488s1.058-0.477,1.684-0.352
				c0.625,0.124,1.131,0.454,1.518,0.989C-145.376,63.384-145.222,63.968-145.3,64.601z M-146.222,63.181
				c-0.289-0.399-0.665-0.646-1.13-0.738s-0.884-0.005-1.254,0.265c-0.371,0.267-0.586,0.637-0.644,1.109
				c-0.059,0.472,0.056,0.906,0.343,1.305c0.289,0.398,0.666,0.645,1.132,0.736c0.466,0.093,0.884,0.005,1.255-0.264
				c0.371-0.268,0.585-0.637,0.644-1.108C-145.818,64.015-145.934,63.58-146.222,63.181z"/>
			<path d="M-145.676,69.664l1.809-4.296l0.461,0.447l-1.296,3.081l3.045-1.382l0.463,0.45l-4.247,1.927L-145.676,69.664z"/>
			<path d="M-138.392,70.059l-0.333,0.452l-1.54-1.135l-0.787,1.067l1.54,1.136l-0.333,0.452l-1.54-1.136l-0.787,1.068l1.54,1.135
				l-0.335,0.455l-2.026-1.494l2.576-3.495L-138.392,70.059z"/>
			<path d="M-136.785,71.084l0.215,2.858l2.466-1.457l0.489,0.256l-2.013,3.847l-0.536-0.28l1.454-2.779l-2.378,1.401l-0.209-2.755
				l-1.454,2.779l-0.536-0.28l2.013-3.847L-136.785,71.084z"/>
			<path d="M-131.411,73.546c0.255,0.089,0.445,0.249,0.569,0.48c0.124,0.231,0.145,0.466,0.062,0.703
				c-0.084,0.245-0.27,0.35-0.555,0.316c0.183,0.092,0.356,0.294,0.521,0.605c0.165,0.312,0.178,0.669,0.039,1.07
				s-0.411,0.696-0.816,0.883c-0.38,0.177-0.715,0.217-1.003,0.12l-0.001,0.006l-1.131-0.393l1.422-4.103L-131.411,73.546z
				 M-132.332,75.159l-0.639,1.844l0.56,0.194l0.003-0.008c0.12,0.034,0.297-0.004,0.53-0.112c0.257-0.117,0.43-0.304,0.518-0.559
				c0.087-0.251,0.065-0.499-0.065-0.744c-0.13-0.246-0.331-0.415-0.601-0.509L-132.332,75.159z M-131.917,73.965l-0.225,0.648
				l0.373,0.129c0.087,0.022,0.17,0.018,0.249-0.014c0.086-0.034,0.146-0.099,0.179-0.194s0.026-0.187-0.021-0.272
				c-0.047-0.087-0.125-0.148-0.231-0.186L-131.917,73.965z"/>
			<path d="M-126.26,74.933l-0.12,0.549l-1.869-0.409l-0.284,1.296l1.869,0.409l-0.12,0.549l-1.869-0.408l-0.284,1.295l1.869,0.409
				l-0.121,0.552l-2.459-0.539l0.93-4.241L-126.26,74.933z"/>
			<path d="M-124.159,78.18l-0.549-0.055l-0.137,1.383l-0.602-0.06l0.427-4.32l1.319,0.13c0.369,0.084,0.671,0.259,0.905,0.523
				c0.28,0.318,0.4,0.68,0.36,1.083c-0.041,0.406-0.229,0.738-0.565,0.996c-0.232,0.177-0.406,0.272-0.521,0.287l0.886,1.579
				l-0.729-0.072L-124.159,78.18z M-124.474,75.75l-0.179,1.813l0.549,0.055c0.267,0.026,0.505-0.04,0.713-0.198
				s0.325-0.363,0.35-0.616c0.025-0.25-0.05-0.472-0.223-0.668c-0.173-0.195-0.394-0.306-0.661-0.332L-124.474,75.75z"/>
			<path d="M-117.577,78.279c0.293-0.251,0.543-0.466,0.75-0.644c0.207-0.177,0.388-0.364,0.545-0.561
				c0.157-0.196,0.224-0.403,0.202-0.621c-0.023-0.218-0.125-0.395-0.306-0.53c-0.181-0.136-0.389-0.191-0.624-0.168
				c-0.23,0.024-0.421,0.121-0.572,0.291c-0.128,0.146-0.192,0.382-0.194,0.708l-0.622-0.141c0.023-0.381,0.137-0.688,0.342-0.925
				c0.257-0.296,0.586-0.464,0.987-0.506c0.405-0.041,0.763,0.056,1.074,0.29c0.311,0.235,0.486,0.541,0.525,0.917
				c0.038,0.371-0.066,0.708-0.313,1.012c-0.156,0.193-0.342,0.382-0.557,0.566c-0.215,0.186-0.453,0.392-0.716,0.618
				c-0.23,0.197-0.354,0.358-0.37,0.485l2.208-0.228l0.058,0.562l-2.914,0.301C-118.035,79.007-117.87,78.531-117.577,78.279z"/>
			<path d="M-112.554,76.615l-0.357,0.077l-0.129-0.542c0.257-0.064,0.423-0.121,0.497-0.169c0.075-0.049,0.149-0.132,0.223-0.25
				c0.074-0.118,0.096-0.238,0.067-0.361c-0.029-0.122-0.099-0.214-0.209-0.275c-0.111-0.063-0.231-0.078-0.362-0.047
				c-0.128,0.031-0.229,0.099-0.3,0.203c-0.04,0.061-0.073,0.183-0.1,0.363l-0.596-0.07c0.025-0.257,0.084-0.451,0.177-0.583
				c0.164-0.243,0.393-0.4,0.687-0.47c0.299-0.071,0.577-0.034,0.831,0.112c0.255,0.146,0.415,0.354,0.479,0.622
				c0.065,0.274-0.047,0.581-0.337,0.92c0.171-0.029,0.369,0.018,0.595,0.141c0.335,0.206,0.546,0.491,0.632,0.854
				c0.087,0.366,0.023,0.712-0.193,1.037c-0.216,0.326-0.522,0.536-0.918,0.63c-0.392,0.093-0.758,0.043-1.099-0.151
				c-0.271-0.155-0.48-0.409-0.628-0.763l0.541-0.338c0.109,0.309,0.249,0.511,0.417,0.606c0.198,0.11,0.41,0.14,0.636,0.087
				c0.229-0.056,0.407-0.177,0.534-0.365c0.126-0.188,0.164-0.389,0.113-0.602c-0.051-0.215-0.177-0.385-0.377-0.51
				C-111.933,76.646-112.207,76.595-112.554,76.615z"/>
			<path d="M-108.665,73.817l1.316,3.544l-0.569,0.212l-1.316-3.544l-1.021,0.379l-0.195-0.526l2.612-0.97l0.195,0.526
				L-108.665,73.817z"/>
			<path d="M-105.198,74.481l0.821,1.598l-0.538,0.276l-1.985-3.861l0.538-0.276l0.907,1.764l1.283-0.659l-0.907-1.765l0.538-0.276
				l1.984,3.862l-0.538,0.276l-0.821-1.598L-105.198,74.481z"/>
			<path d="M-98.865,71.01c0.104-0.372,0.191-0.689,0.264-0.952s0.119-0.52,0.14-0.77c0.021-0.251-0.039-0.46-0.179-0.628
				c-0.14-0.169-0.323-0.259-0.549-0.271c-0.226-0.012-0.43,0.058-0.611,0.209c-0.178,0.147-0.283,0.334-0.313,0.56
				c-0.025,0.192,0.053,0.426,0.233,0.696l-0.595,0.229c-0.193-0.329-0.27-0.648-0.231-0.958c0.049-0.389,0.229-0.712,0.538-0.97
				c0.313-0.261,0.664-0.38,1.053-0.357c0.389,0.021,0.705,0.178,0.947,0.469c0.238,0.286,0.34,0.624,0.304,1.014
				c-0.022,0.247-0.071,0.508-0.146,0.78c-0.075,0.273-0.159,0.578-0.25,0.912c-0.082,0.292-0.094,0.495-0.037,0.61l1.707-1.42
				l0.361,0.434l-2.252,1.873C-98.84,71.869-98.968,71.382-98.865,71.01z"/>
			<path d="M-93.853,65.969c0.315,0.284,0.477,0.647,0.483,1.09c0.006,0.443-0.144,0.835-0.452,1.176
				c-0.307,0.34-0.68,0.529-1.121,0.568c-0.44,0.039-0.819-0.084-1.135-0.368l-0.985-0.889c-0.315-0.285-0.477-0.648-0.483-1.091
				s0.143-0.834,0.45-1.174c0.308-0.341,0.682-0.531,1.123-0.57c0.441-0.039,0.819,0.084,1.135,0.369L-93.853,65.969z
				 M-95.253,65.539c-0.197-0.178-0.434-0.254-0.71-0.229c-0.276,0.025-0.511,0.146-0.704,0.359
				c-0.191,0.212-0.286,0.457-0.282,0.734s0.104,0.505,0.301,0.683l0.986,0.889c0.199,0.18,0.436,0.257,0.712,0.232
				c0.276-0.026,0.51-0.146,0.702-0.357c0.193-0.214,0.288-0.46,0.284-0.737c-0.003-0.276-0.104-0.505-0.304-0.685L-95.253,65.539z"
				/>
			<path d="M-94.155,61.408l3.63,2.383l-0.332,0.505l-3.018-1.98l-0.245,0.374l-0.276-0.915L-94.155,61.408z"/>
			<path d="M-89.61,58.463c0.087,0.229,0.049,0.527-0.114,0.894c-0.165,0.367-0.415,0.622-0.75,0.765
				c-0.408,0.172-0.807,0.17-1.196-0.004c-0.388-0.174-0.654-0.47-0.796-0.888c-0.143-0.418-0.121-0.837,0.067-1.256
				c0.187-0.418,0.484-0.714,0.891-0.888c0.393-0.166,0.826-0.144,1.299,0.066l0.007,0.003c0.467,0.209,0.818,0.529,1.051,0.96
				c0.234,0.434,0.491,0.991,0.77,1.676l-0.325,0.725C-89.038,59.593-89.34,58.908-89.61,58.463z M-90.567,57.651
				c-0.244-0.109-0.494-0.109-0.749-0.001c-0.255,0.109-0.441,0.295-0.559,0.559c-0.117,0.261-0.131,0.522-0.042,0.785
				c0.088,0.263,0.255,0.448,0.5,0.558c0.244,0.109,0.494,0.109,0.749,0.001c0.255-0.109,0.441-0.294,0.558-0.555
				c0.118-0.264,0.132-0.526,0.044-0.789C-90.156,57.946-90.322,57.761-90.567,57.651z"/>
		</g>
		<path d="M-79.429,48.675c-0.175-0.159-0.53,0.431-1.638,0.926c-1.852,0.832-2.566,1.21-4.448,1.354
			c-2.372,0.181-3.408,0.126-5.667,0.074c-2.333-0.054-4.104,0.764-5.031,1.415c-0.369,0.215-0.676,0.402-0.732,0.442
			c-1.063,0.771-2.071,1.414-3.027,1.932c-1.126,0.607-1.945,0.912-2.461,0.912c-0.664,0-1.079-0.276-1.245-0.83
			c-0.166-0.553-0.194-1.235-0.083-2.045c0.11-0.812,0.331-1.706,0.664-2.684c0.33-0.977,0.672-1.889,1.022-2.738
			c0.351-0.848,0.664-1.575,0.941-2.183c0.275-0.61,0.432-0.95,0.469-1.025c0.037-0.147-0.008-0.266-0.138-0.358
			c-0.129-0.092-0.296-0.157-0.498-0.194c-0.203-0.036-0.415-0.027-0.636,0.028c-0.221,0.055-0.387,0.137-0.498,0.248l-0.553,0.554
			c-0.148,0.186-0.296,0.186-0.444,0c-0.11-0.147-0.414-0.332-0.912-0.554c-0.497-0.221-1.005-0.293-1.521-0.221
			c-0.738-0.147-1.521-0.037-2.351,0.332c-0.831,0.368-1.613,0.895-2.35,1.575c-0.708,0.656-1.32,1.425-1.841,2.3
			c-0.798,0.897-1.692,1.842-2.689,2.84c-1.048,1.048-2.133,2.088-3.255,3.116c-1.122,1.03-2.153,1.867-3.089,2.513
			c-0.939,0.642-1.747,1.037-2.428,1.186c-0.682,0.146-1.075-0.148-1.187-0.884c-0.147-0.626-0.193-1.333-0.138-2.123
			c0.056-0.791,0.176-1.609,0.359-2.456c0.184-0.845,0.396-1.663,0.634-2.455c0.24-0.79,0.47-1.498,0.69-2.125
			c0.221-0.625,0.414-1.128,0.579-1.516c0.165-0.387,0.25-0.598,0.25-0.633c1.212-0.958,2.426-2.08,3.641-3.368
			c1.214-1.286,2.343-2.638,3.392-4.054c1.049-1.416,1.995-2.814,2.841-4.193c0.845-1.381,1.508-2.648,1.986-3.808
			c0.477-1.158,0.746-2.133,0.8-2.925c0.055-0.789-0.176-1.277-0.69-1.461c-0.735-0.294-1.617-0.083-2.646,0.635
			c-1.031,0.718-2.096,1.766-3.2,3.145c-1.104,1.38-2.216,3.007-3.339,4.883c-1.122,1.876-2.15,3.826-3.089,5.849
			c-0.886,1.911-1.67,3.822-2.359,5.732c-1.043,1.375-2.255,2.664-3.653,3.868c-1.455,1.25-2.907,2.344-4.359,3.281
			c-1.454,0.938-2.787,1.683-4.001,2.234c-1.212,0.553-2.115,0.828-2.703,0.828c-0.516,0-0.753-0.176-0.717-0.524
			c0.036-0.351,0.193-0.81,0.469-1.378c0.275-0.572,0.588-1.206,0.938-1.904c0.349-0.698,0.615-1.408,0.8-2.126
			c0.184-0.716,0.203-1.406,0.055-2.067c-0.147-0.662-0.589-1.215-1.325-1.655c-0.698-0.403-1.212-0.68-1.544-0.828
			c-0.22-0.109-0.405-0.185-0.553-0.22c0.025-0.041,0.057-0.093,0.086-0.14c0.041-0.053,0.07-0.102,0.089-0.146
			c0.174-0.286,0.401-0.667,0.68-1.149c0.387-0.662,0.727-1.352,1.021-2.069s0.487-1.379,0.579-1.985
			c0.093-0.607-0.064-1.001-0.468-1.185c-0.588-0.259-1.132-0.305-1.627-0.14c-0.498,0.166-0.939,0.461-1.325,0.882
			c-0.386,0.424-0.718,0.939-0.994,1.546c-0.275,0.607-0.487,1.223-0.635,1.849c-0.219,0.847-0.11,1.48,0.333,1.904
			c0.411,0.394,0.898,0.704,1.453,0.939c-0.864,0.896-1.974,1.76-3.17,2.488c-1.322,0.805-1.798,0.915-5.025,1.245
			c-3.496,0.361-7.812-1.046-9.509,0.77c-1.2,1.287-1.132,2.273-1.132,2.273s-0.039,0.498,0.172,0.563
			c0.127,0.039,0.104-0.762,0.374-1.435c0.157-0.397,0.883-1.477,1.628-1.745c0.671-0.243,1.546-0.374,2.392-0.36
			c0.878,0.014,3.83,0.409,5.734,0.283c1.852-0.122,3.584-0.116,5.533-1.275c0.901-0.534,2.31-1.604,3.354-2.661
			c0.519,0.206,1.015,0.404,1.478,0.597c0.532,0.221,0.8,0.552,0.8,0.993s-0.129,0.966-0.387,1.572s-0.542,1.242-0.854,1.903
			c-0.313,0.661-0.599,1.323-0.855,1.985c-0.258,0.663-0.386,1.261-0.386,1.793c0,0.533,0.182,0.967,0.551,1.298
			c0.367,0.331,1.011,0.497,1.931,0.497c0.735,0,1.793-0.332,3.172-0.994c1.38-0.662,2.822-1.508,4.332-2.539
			c1.508-1.027,2.969-2.178,4.385-3.447c1.03-0.921,1.886-1.838,2.575-2.75c-0.619,1.816-1.055,3.487-1.304,5.014
			c-0.278,1.673-0.304,3.087-0.083,4.247c0.221,1.159,0.79,1.885,1.709,2.179c0.699,0.221,1.554,0.074,2.566-0.441
			c1.011-0.515,2.077-1.232,3.2-2.152c1.122-0.918,2.244-1.939,3.366-3.061s2.125-2.18,3.008-3.172
			c0.072-0.082,0.149-0.171,0.222-0.253c-0.251,0.605-0.433,1.222-0.527,1.858c-0.11,0.553-0.073,1.004,0.11,1.354
			c0.186,0.353,0.408,0.608,0.664,0.775c0.26,0.164,0.526,0.286,0.802,0.359c0.277,0.073,0.452,0.109,0.526,0.109
			c0.812,0.073,1.632-0.211,2.462-0.857c0.829-0.644,1.907-1.632,3.235-2.959c0.147-0.146,0.138,0.104-0.028,0.746
			c-0.165,0.647-0.249,1.383-0.249,2.213s0.23,1.604,0.691,2.323c0.461,0.72,1.392,1.079,2.793,1.079
			c0.886,0,2.01-0.397,3.375-1.189c0.788-0.458,1.569-0.972,2.345-1.528c0.038-0.022,0.082-0.051,0.132-0.085
			c0.842-0.576,1.997-1.72,5.447-1.826c1.64-0.051,3.206,0.244,5.86-0.098c2.417-0.311,2.758-0.631,4.474-1.444
			C-79.889,49.431-79.176,48.905-79.429,48.675z M-121.881,43.216c0.423-0.938,0.966-2.098,1.628-3.475
			c0.664-1.38,1.416-2.861,2.262-4.442c0.847-1.581,1.701-3.043,2.567-4.386c0.863-1.342,1.672-2.463,2.427-3.366
			c0.755-0.9,1.389-1.35,1.903-1.35c0.551,0,0.781,0.366,0.688,1.102c-0.089,0.736-0.413,1.685-0.965,2.841
			c-0.551,1.16-1.268,2.447-2.151,3.863c-0.882,1.416-1.838,2.813-2.87,4.192c-1.029,1.379-2.078,2.647-3.144,3.807
			c-1.067,1.159-2.041,2.052-2.924,2.677C-122.497,44.642-122.303,44.155-121.881,43.216z M-143.039,43.74
			c0.075-0.663,0.285-1.352,0.636-2.068c0.348-0.718,0.763-1.354,1.24-1.904c0.478-0.551,0.81-0.828,0.992-0.828
			c0.332,0,0.443,0.277,0.332,0.828c-0.11,0.551-0.313,1.177-0.607,1.876c-0.295,0.7-0.635,1.389-1.019,2.068
			c-0.387,0.681-0.654,1.149-0.8,1.405c0,0-0.001,0.002-0.001,0.002C-142.854,44.862-143.112,44.4-143.039,43.74z M-103.982,45.719
			c-0.074,0.331-0.167,0.608-0.277,0.83c-0.296,0.479-0.497,0.867-0.609,1.16c-0.11,0.297-0.257,0.536-0.442,0.72
			c-0.921,0.96-1.834,1.871-2.737,2.739c-0.904,0.865-1.89,1.446-2.959,1.741c-0.294,0.111-0.404-0.092-0.332-0.608
			c0.074-0.517,0.276-1.171,0.608-1.964s0.793-1.632,1.383-2.517c0.589-0.886,1.272-1.659,2.046-2.322
			c0.184-0.147,0.423-0.314,0.72-0.498c0.292-0.185,0.607-0.332,0.939-0.442c0.332-0.111,0.646-0.146,0.939-0.111
			c0.296,0.037,0.517,0.185,0.666,0.442C-103.927,45.11-103.909,45.387-103.982,45.719z"/>
		<path d="M-120.48,13.805c-16.595,0-30.047,13.451-30.047,30.047c0,16.593,13.452,30.047,30.047,30.047
			c16.595,0,30.047-13.454,30.047-30.047C-90.433,27.256-103.885,13.805-120.48,13.805z M-120.48,73.552
			c-16.404,0-29.702-13.296-29.702-29.7s13.298-29.703,29.702-29.703c16.403,0,29.702,13.299,29.702,29.703
			S-104.077,73.552-120.48,73.552z"/>
		<path d="M-120.855,5.789c-21.021,0-38.063,17.041-38.063,38.063s17.041,38.063,38.063,38.063s38.063-17.041,38.063-38.063
			S-99.834,5.789-120.855,5.789z M-120.855,81.303c-20.684,0-37.451-16.768-37.451-37.451S-141.539,6.4-120.855,6.4
			s37.451,16.768,37.451,37.451S-100.172,81.303-120.855,81.303z"/>
	</g>
	
		<image display="none" overflow="visible" opacity="0.5" width="150" height="160" xlink:href="B1BC2BAD.jpg"  transform="matrix(0.8033 0 0 0.8033 -172.7388 151.0977)">
	</image>
	
		<image display="none" overflow="visible" opacity="0.5" width="150" height="160" xlink:href="B1BC2BAF.jpg"  transform="matrix(0.8033 0 0 0.8033 -172.7388 294.7637)">
	</image>
	<g>
		<path fill="#FFFFFF" d="M83.571,45.34c-0.176-0.159-0.529,0.431-1.639,0.926c-1.852,0.832-2.566,1.21-4.447,1.354
			c-2.371,0.181-3.408,0.126-5.668,0.074c-2.332-0.054-4.104,0.766-5.031,1.415c-0.367,0.215-0.676,0.402-0.732,0.442
			c-1.063,0.771-2.07,1.414-3.025,1.932c-1.127,0.607-1.945,0.912-2.463,0.912c-0.662,0-1.078-0.276-1.244-0.83
			c-0.166-0.553-0.193-1.235-0.082-2.045c0.109-0.811,0.33-1.706,0.664-2.684c0.33-0.977,0.672-1.889,1.021-2.738
			c0.352-0.847,0.664-1.575,0.941-2.182c0.275-0.611,0.432-0.951,0.469-1.026c0.037-0.147-0.008-0.265-0.137-0.358
			c-0.131-0.092-0.297-0.156-0.498-0.194c-0.203-0.036-0.416-0.027-0.637,0.028c-0.221,0.055-0.387,0.137-0.498,0.248l-0.553,0.555
			c-0.146,0.185-0.295,0.185-0.443,0c-0.109-0.148-0.414-0.333-0.912-0.555c-0.496-0.221-1.004-0.293-1.521-0.221
			c-0.736-0.147-1.52-0.037-2.35,0.332c-0.83,0.368-1.613,0.895-2.35,1.575c-0.709,0.657-1.32,1.425-1.842,2.3
			c-0.797,0.896-1.691,1.842-2.689,2.84c-1.049,1.048-2.133,2.088-3.254,3.116c-1.123,1.03-2.154,1.867-3.09,2.513
			c-0.939,0.642-1.746,1.037-2.428,1.186c-0.684,0.146-1.076-0.148-1.188-0.884c-0.146-0.626-0.193-1.333-0.139-2.124
			c0.057-0.791,0.176-1.608,0.359-2.454s0.395-1.664,0.635-2.456c0.24-0.79,0.469-1.498,0.689-2.125
			c0.223-0.625,0.414-1.127,0.58-1.516c0.164-0.387,0.25-0.598,0.25-0.633c1.211-0.958,2.426-2.08,3.641-3.368
			c1.213-1.286,2.342-2.638,3.391-4.054c1.051-1.416,1.996-2.814,2.842-4.193c0.846-1.381,1.508-2.648,1.986-3.808
			c0.477-1.158,0.746-2.133,0.801-2.925c0.055-0.789-0.176-1.277-0.691-1.461c-0.734-0.294-1.617-0.083-2.646,0.635
			c-1.031,0.718-2.096,1.766-3.199,3.145s-2.217,3.006-3.34,4.885c-1.121,1.874-2.15,3.824-3.088,5.847
			c-0.887,1.911-1.672,3.822-2.361,5.731c-1.043,1.375-2.254,2.665-3.652,3.869c-1.455,1.25-2.906,2.344-4.359,3.281
			c-1.453,0.938-2.785,1.683-4,2.234c-1.213,0.553-2.115,0.828-2.703,0.828c-0.515,0-0.754-0.176-0.717-0.524
			c0.035-0.35,0.192-0.809,0.469-1.378c0.275-0.572,0.588-1.206,0.938-1.904s0.615-1.408,0.801-2.126
			c0.184-0.716,0.203-1.406,0.055-2.067c-0.146-0.662-0.59-1.215-1.324-1.655c-0.699-0.403-1.213-0.679-1.545-0.828
			c-0.221-0.109-0.404-0.184-0.553-0.22c0.025-0.041,0.057-0.093,0.086-0.14c0.041-0.053,0.07-0.102,0.09-0.146
			c0.174-0.286,0.4-0.667,0.68-1.149c0.387-0.662,0.727-1.352,1.021-2.069c0.293-0.718,0.486-1.379,0.578-1.985
			c0.094-0.607-0.064-1.001-0.467-1.186c-0.589-0.258-1.133-0.304-1.629-0.139c-0.496,0.166-0.938,0.461-1.324,0.882
			c-0.385,0.425-0.717,0.939-0.992,1.546c-0.275,0.607-0.488,1.223-0.635,1.849c-0.219,0.847-0.111,1.48,0.332,1.903
			c0.412,0.395,0.898,0.705,1.453,0.94c-0.863,0.897-1.975,1.76-3.17,2.488c-1.322,0.805-1.799,0.915-5.025,1.245
			C8.565,46.406,4.25,45,2.553,46.814c-1.2,1.287-1.132,2.273-1.132,2.273s-0.039,0.498,0.172,0.563
			c0.127,0.039,0.104-0.762,0.374-1.435c0.157-0.397,0.883-1.477,1.628-1.745c0.671-0.243,1.546-0.374,2.392-0.36
			c0.878,0.015,3.83,0.409,5.733,0.283c1.853-0.122,3.585-0.116,5.533-1.275c0.902-0.533,2.311-1.604,3.354-2.659
			c0.52,0.204,1.016,0.402,1.479,0.595c0.532,0.221,0.801,0.552,0.801,0.993s-0.129,0.966-0.386,1.572
			c-0.258,0.606-0.543,1.242-0.856,1.903s-0.598,1.323-0.855,1.985c-0.258,0.663-0.385,1.261-0.385,1.793
			c0,0.534,0.182,0.967,0.551,1.298c0.367,0.331,1.012,0.497,1.932,0.497c0.734,0,1.793-0.332,3.172-0.994s2.822-1.508,4.33-2.539
			c1.51-1.027,2.969-2.178,4.387-3.447c1.029-0.921,1.885-1.838,2.574-2.75c-0.619,1.816-1.055,3.487-1.305,5.014
			c-0.277,1.673-0.305,3.087-0.084,4.247c0.223,1.159,0.791,1.885,1.709,2.179c0.699,0.221,1.555,0.074,2.566-0.441
			c1.012-0.515,2.078-1.232,3.201-2.152c1.121-0.918,2.244-1.939,3.365-3.061s2.125-2.18,3.008-3.172
			c0.072-0.082,0.148-0.171,0.223-0.253c-0.252,0.604-0.434,1.222-0.527,1.859c-0.111,0.552-0.074,1.003,0.109,1.353
			c0.186,0.352,0.408,0.608,0.664,0.775c0.26,0.164,0.525,0.287,0.803,0.359c0.275,0.073,0.451,0.109,0.525,0.109
			c0.813,0.073,1.631-0.211,2.461-0.857c0.83-0.644,1.908-1.632,3.234-2.959c0.148-0.146,0.139,0.104-0.027,0.746
			c-0.166,0.647-0.248,1.383-0.248,2.213s0.23,1.604,0.691,2.323c0.461,0.72,1.391,1.079,2.793,1.079
			c0.885,0,2.01-0.397,3.373-1.189c0.789-0.458,1.57-0.972,2.346-1.528c0.039-0.022,0.082-0.05,0.133-0.085
			c0.842-0.576,1.996-1.72,5.445-1.826c1.641-0.051,3.207,0.244,5.861-0.097c2.416-0.312,2.758-0.632,4.475-1.445
			C83.11,46.096,83.823,45.57,83.571,45.34z M41.118,39.881c0.424-0.938,0.967-2.098,1.629-3.475
			c0.662-1.38,1.416-2.861,2.262-4.442s1.701-3.043,2.566-4.386c0.863-1.342,1.672-2.463,2.426-3.366
			c0.756-0.9,1.391-1.35,1.904-1.35c0.551,0,0.781,0.366,0.688,1.102c-0.088,0.736-0.412,1.685-0.965,2.841
			c-0.551,1.16-1.268,2.447-2.15,3.863c-0.883,1.417-1.838,2.813-2.869,4.192c-1.029,1.379-2.078,2.647-3.145,3.808
			c-1.068,1.158-2.041,2.051-2.924,2.676C40.503,41.307,40.696,40.82,41.118,39.881z M19.96,40.405
			c0.076-0.663,0.285-1.352,0.637-2.068c0.348-0.718,0.764-1.354,1.24-1.904s0.809-0.828,0.992-0.828
			c0.332,0,0.443,0.277,0.332,0.828c-0.109,0.551-0.313,1.177-0.607,1.876c-0.295,0.7-0.635,1.389-1.02,2.068
			c-0.387,0.681-0.654,1.149-0.799,1.405l-0.002,0.002C20.146,41.527,19.888,41.065,19.96,40.405z M59.017,42.384
			c-0.074,0.331-0.166,0.608-0.275,0.83c-0.297,0.479-0.498,0.866-0.609,1.161c-0.111,0.296-0.258,0.535-0.441,0.719
			c-0.922,0.96-1.836,1.871-2.738,2.74c-0.904,0.864-1.889,1.445-2.959,1.74c-0.295,0.111-0.404-0.092-0.332-0.608
			c0.074-0.517,0.277-1.171,0.609-1.964s0.793-1.632,1.383-2.517c0.59-0.886,1.271-1.659,2.045-2.322
			c0.184-0.147,0.424-0.314,0.721-0.497c0.293-0.186,0.607-0.332,0.939-0.443s0.645-0.146,0.939-0.111
			c0.295,0.037,0.516,0.185,0.664,0.442C59.073,41.775,59.091,42.052,59.017,42.384z"/>
		<path fill="#FFFFFF" d="M42.521,13.972c-15.768,0-28.549,12.78-28.549,28.547c0,15.765,12.781,28.547,28.549,28.547
			c15.766,0,28.545-12.782,28.545-28.547C71.065,26.752,58.286,13.972,42.521,13.972z M42.521,70.736
			c-15.586,0-28.221-12.633-28.221-28.218s12.635-28.22,28.221-28.22c15.584,0,28.217,12.635,28.217,28.22
			S58.104,70.736,42.521,70.736z"/>
		<path fill="#FFFFFF" d="M42.144,4.457c-21.021,0-38.062,17.041-38.062,38.062c0,21.022,17.04,38.063,38.062,38.063
			s38.063-17.041,38.063-38.063C80.206,21.498,63.165,4.457,42.144,4.457z M42.144,79.97c-20.684,0-37.45-16.768-37.45-37.451
			S21.46,5.067,42.144,5.067s37.451,16.768,37.451,37.451S62.827,79.97,42.144,79.97z"/>
		<g>
			<path fill="#FFFFFF" d="M12.455,30.482l-0.196,0.516l1.299,0.493l-0.214,0.565l-4.06-1.54l0.47-1.239
				c0.177-0.335,0.424-0.58,0.741-0.736c0.38-0.188,0.76-0.209,1.139-0.065c0.382,0.145,0.654,0.413,0.815,0.805
				c0.11,0.271,0.157,0.464,0.141,0.578l1.755-0.442l-0.26,0.685L12.455,30.482z M10.026,30.151l1.705,0.646l0.195-0.516
				c0.095-0.251,0.094-0.498-0.005-0.74c-0.099-0.243-0.267-0.409-0.503-0.499c-0.235-0.089-0.469-0.075-0.703,0.041
				s-0.398,0.301-0.494,0.552L10.026,30.151z"/>
			<path fill="#FFFFFF" d="M13.737,21.899l0.467,0.313l-1.064,1.589l1.103,0.738l1.064-1.589l0.467,0.313l-1.064,1.589l1.103,0.738
				l1.064-1.589l0.469,0.313l-1.401,2.092l-3.607-2.415L13.737,21.899z"/>
			<path fill="#FFFFFF" d="M19.462,21.734l-0.557-2.73l-2.244-0.596l0.506-0.478l1.607,0.428l-0.329-1.634l0.506-0.477l0.459,2.278
				l2.698,0.712l-0.505,0.477l-2.062-0.543l0.426,2.086L19.462,21.734z"/>
			<path fill="#FFFFFF" d="M29.189,10.172l3.17,3.42l-0.598,0.234l-1.122-1.209l-1.153,0.453l0.006,1.648l-0.602,0.235l-0.006-4.662
				L29.189,10.172z M30.23,12.174l-0.745-0.799l0.003,1.091L30.23,12.174z"/>
			<path fill="#FFFFFF" d="M34.978,8.435l0.545-0.089l2.401,2.748l-0.499-3.059l0.6-0.098l0.698,4.285l-0.521,0.085l-2.434-2.781
				l0.505,3.096l-0.597,0.098L34.978,8.435z"/>
			<path fill="#FFFFFF" d="M43.081,7.694c0.759,0.034,1.342,0.258,1.75,0.67c0.448,0.454,0.659,0.986,0.636,1.598
				c-0.025,0.613-0.277,1.127-0.76,1.542c-0.44,0.379-1.039,0.556-1.799,0.529l-0.443-0.018l0.172-4.339L43.081,7.694z
				 M43.219,8.273l-0.127,3.196c0.48,0.02,0.88-0.108,1.199-0.384c0.359-0.309,0.547-0.69,0.565-1.148
				c0.019-0.455-0.14-0.852-0.474-1.189C44.088,8.451,43.699,8.292,43.219,8.273z"/>
			<path fill="#FFFFFF" d="M56.975,10.631l-0.121,4.661l-0.592-0.25l0.042-1.648l-1.141-0.481l-1.149,1.183l-0.594-0.251l3.254-3.34
				L56.975,10.631z M56.32,12.791l0.027-1.094l-0.762,0.784L56.32,12.791z"/>
			<path fill="#FFFFFF" d="M61.56,16.521l-0.452-0.316l-0.797,1.139l-0.495-0.347l2.488-3.558l1.087,0.76
				c0.28,0.254,0.458,0.553,0.533,0.898c0.088,0.415,0.016,0.788-0.217,1.12c-0.234,0.335-0.562,0.533-0.981,0.593
				c-0.29,0.04-0.487,0.038-0.595-0.006l-0.001,1.811l-0.601-0.42L61.56,16.521z M62.476,14.248l-1.045,1.493l0.452,0.316
				c0.221,0.154,0.46,0.213,0.719,0.177c0.26-0.036,0.462-0.158,0.607-0.365c0.145-0.206,0.188-0.437,0.133-0.692
				c-0.056-0.255-0.193-0.459-0.414-0.613L62.476,14.248z"/>
			<path fill="#FFFFFF" d="M68.307,18.385l-3.09,3.05l-0.424-0.43l3.09-3.05L68.307,18.385z"/>
			<path fill="#FFFFFF" d="M72.717,24.009l-0.467,0.313l-1.066-1.587l-1.102,0.739l1.067,1.588l-0.466,0.313l-1.067-1.588
				l-1.102,0.74l1.067,1.588l-0.469,0.314l-1.404-2.09l3.604-2.421L72.717,24.009z"/>
			<path fill="#FFFFFF" d="M70.771,29.646l4.044-1.579l0.221,0.563l-3.52,1.373l0.607,1.557l-0.525,0.205L70.771,29.646z"/>
		</g>
		<g>
			<path fill="#FFFFFF" d="M13.961,54.932l0.236,0.499l-1.978,3.067l2.802-1.324l0.259,0.549l-3.925,1.855l-0.226-0.478l2.001-3.107
				l-2.836,1.341l-0.259-0.546L13.961,54.932z"/>
			<path fill="#FFFFFF" d="M17.7,62.392c-0.079,0.633-0.366,1.129-0.863,1.488c-0.497,0.358-1.059,0.477-1.684,0.352
				c-0.625-0.124-1.132-0.454-1.518-0.989c-0.387-0.535-0.541-1.119-0.462-1.752s0.366-1.129,0.863-1.488s1.058-0.477,1.684-0.352
				c0.625,0.124,1.131,0.454,1.518,0.989C17.624,61.175,17.778,61.759,17.7,62.392z M16.778,60.972
				c-0.289-0.399-0.665-0.646-1.13-0.738s-0.884-0.005-1.254,0.265c-0.371,0.267-0.586,0.637-0.644,1.109
				c-0.059,0.472,0.056,0.906,0.343,1.305c0.289,0.398,0.666,0.645,1.132,0.736c0.466,0.093,0.884,0.005,1.255-0.264
				c0.371-0.268,0.585-0.637,0.644-1.108C17.182,61.806,17.066,61.371,16.778,60.972z"/>
			<path fill="#FFFFFF" d="M17.324,67.455l1.809-4.296l0.461,0.447l-1.296,3.081l3.045-1.382l0.463,0.45l-4.247,1.927L17.324,67.455
				z"/>
			<path fill="#FFFFFF" d="M24.608,67.85l-0.333,0.452l-1.54-1.134l-0.787,1.066l1.54,1.136l-0.334,0.452l-1.54-1.136l-0.787,1.068
				l1.54,1.135l-0.335,0.455l-2.026-1.494l2.576-3.495L24.608,67.85z"/>
			<path fill="#FFFFFF" d="M26.215,68.875l0.215,2.858l2.467-1.457l0.488,0.256l-2.012,3.847l-0.536-0.28l1.454-2.779l-2.378,1.401
				l-0.21-2.755l-1.453,2.779l-0.536-0.28l2.013-3.847L26.215,68.875z"/>
			<path fill="#FFFFFF" d="M31.59,71.337c0.255,0.089,0.445,0.249,0.568,0.48c0.124,0.231,0.145,0.466,0.063,0.703
				c-0.085,0.245-0.27,0.35-0.555,0.316c0.182,0.092,0.355,0.294,0.521,0.605s0.178,0.669,0.038,1.07
				c-0.139,0.401-0.41,0.696-0.816,0.883c-0.38,0.177-0.715,0.217-1.002,0.12l-0.002,0.006l-1.131-0.393l1.422-4.103L31.59,71.337z
				 M30.668,72.95l-0.639,1.844l0.56,0.194l0.003-0.008c0.12,0.034,0.297-0.004,0.53-0.112c0.257-0.117,0.43-0.304,0.519-0.559
				c0.087-0.251,0.064-0.499-0.065-0.744c-0.13-0.246-0.331-0.415-0.601-0.509L30.668,72.95z M31.082,71.756l-0.225,0.648
				l0.373,0.129c0.086,0.022,0.17,0.018,0.248-0.014c0.086-0.034,0.146-0.099,0.18-0.194s0.025-0.187-0.021-0.272
				c-0.048-0.087-0.125-0.148-0.231-0.186L31.082,71.756z"/>
			<path fill="#FFFFFF" d="M36.74,72.724l-0.121,0.549l-1.868-0.409l-0.284,1.296l1.869,0.409l-0.121,0.549l-1.868-0.408
				l-0.284,1.295l1.869,0.409l-0.121,0.552l-2.459-0.539l0.93-4.241L36.74,72.724z"/>
			<path fill="#FFFFFF" d="M38.841,75.971l-0.55-0.055l-0.137,1.383l-0.602-0.06l0.428-4.32l1.319,0.13
				c0.369,0.084,0.671,0.259,0.905,0.523c0.279,0.318,0.399,0.68,0.359,1.083c-0.041,0.406-0.229,0.738-0.565,0.996
				c-0.232,0.177-0.406,0.272-0.521,0.287l0.885,1.579l-0.729-0.072L38.841,75.971z M38.526,73.541l-0.179,1.813l0.549,0.055
				c0.268,0.026,0.505-0.04,0.713-0.198c0.209-0.158,0.326-0.363,0.351-0.616c0.024-0.25-0.05-0.473-0.224-0.668
				c-0.173-0.195-0.393-0.306-0.66-0.332L38.526,73.541z"/>
			<path fill="#FFFFFF" d="M45.424,76.07c0.293-0.251,0.543-0.466,0.75-0.644c0.206-0.177,0.388-0.364,0.545-0.561
				c0.156-0.196,0.225-0.403,0.201-0.621c-0.022-0.218-0.124-0.395-0.306-0.53c-0.181-0.136-0.39-0.191-0.624-0.168
				c-0.23,0.024-0.42,0.121-0.571,0.291c-0.128,0.146-0.192,0.382-0.194,0.708l-0.622-0.141c0.023-0.381,0.138-0.688,0.342-0.925
				c0.257-0.296,0.587-0.464,0.987-0.506c0.404-0.041,0.763,0.056,1.074,0.29c0.311,0.235,0.485,0.541,0.524,0.917
				c0.038,0.371-0.065,0.708-0.313,1.012c-0.156,0.193-0.342,0.382-0.557,0.566c-0.215,0.186-0.453,0.392-0.716,0.618
				c-0.23,0.197-0.354,0.358-0.369,0.485l2.207-0.228l0.059,0.562l-2.914,0.301C44.965,76.798,45.131,76.322,45.424,76.07z"/>
			<path fill="#FFFFFF" d="M50.445,74.406l-0.356,0.077l-0.129-0.542c0.257-0.064,0.423-0.121,0.497-0.169
				c0.074-0.049,0.148-0.132,0.223-0.25s0.097-0.238,0.067-0.361c-0.028-0.122-0.099-0.214-0.21-0.275
				c-0.11-0.063-0.23-0.078-0.361-0.047c-0.129,0.031-0.229,0.099-0.301,0.203c-0.039,0.061-0.072,0.183-0.1,0.363l-0.596-0.07
				c0.025-0.257,0.084-0.451,0.177-0.583c0.164-0.243,0.394-0.4,0.687-0.47c0.299-0.071,0.576-0.034,0.831,0.112
				s0.415,0.354,0.479,0.622c0.065,0.274-0.048,0.581-0.337,0.92c0.171-0.029,0.369,0.018,0.595,0.141
				c0.335,0.206,0.546,0.491,0.632,0.854c0.088,0.366,0.023,0.712-0.193,1.037c-0.215,0.326-0.521,0.536-0.918,0.63
				c-0.392,0.093-0.758,0.043-1.098-0.151c-0.271-0.155-0.48-0.409-0.629-0.763l0.541-0.338c0.109,0.309,0.248,0.511,0.418,0.606
				c0.197,0.11,0.41,0.14,0.635,0.086c0.229-0.055,0.408-0.176,0.534-0.364c0.126-0.188,0.164-0.389,0.113-0.602
				c-0.051-0.215-0.177-0.385-0.378-0.51S50.793,74.386,50.445,74.406z"/>
			<path fill="#FFFFFF" d="M54.335,71.608l1.315,3.544l-0.568,0.212l-1.316-3.544l-1.021,0.379l-0.195-0.526l2.611-0.97l0.195,0.526
				L54.335,71.608z"/>
			<path fill="#FFFFFF" d="M57.803,72.272l0.82,1.598l-0.537,0.276l-1.984-3.861l0.537-0.276l0.907,1.764l1.283-0.659l-0.907-1.765
				l0.538-0.276l1.984,3.862l-0.538,0.276l-0.82-1.598L57.803,72.272z"/>
			<path fill="#FFFFFF" d="M64.135,68.801c0.104-0.372,0.191-0.689,0.264-0.952c0.073-0.263,0.119-0.52,0.141-0.77
				c0.021-0.251-0.039-0.46-0.179-0.628c-0.14-0.169-0.323-0.259-0.55-0.271c-0.226-0.012-0.43,0.058-0.61,0.209
				c-0.179,0.147-0.282,0.334-0.313,0.56c-0.024,0.192,0.053,0.426,0.233,0.696l-0.595,0.229c-0.193-0.329-0.27-0.648-0.231-0.957
				c0.049-0.39,0.229-0.713,0.538-0.971c0.313-0.261,0.664-0.38,1.053-0.357c0.39,0.021,0.705,0.178,0.947,0.469
				c0.238,0.286,0.34,0.624,0.305,1.014c-0.023,0.247-0.072,0.508-0.146,0.78c-0.076,0.273-0.159,0.578-0.25,0.912
				c-0.082,0.292-0.094,0.495-0.037,0.61l1.707-1.42l0.36,0.434l-2.252,1.873C64.16,69.66,64.031,69.173,64.135,68.801z"/>
			<path fill="#FFFFFF" d="M69.146,63.76c0.316,0.284,0.477,0.647,0.484,1.09c0.006,0.443-0.145,0.835-0.452,1.176
				c-0.307,0.34-0.681,0.529-1.121,0.568s-0.819-0.084-1.135-0.368l-0.985-0.889c-0.315-0.285-0.477-0.648-0.483-1.091
				s0.144-0.834,0.45-1.174c0.307-0.341,0.682-0.531,1.122-0.57s0.819,0.084,1.135,0.369L69.146,63.76z M67.746,63.33
				c-0.197-0.178-0.434-0.254-0.709-0.229c-0.276,0.025-0.512,0.146-0.704,0.359c-0.191,0.212-0.286,0.458-0.282,0.734
				c0.004,0.277,0.104,0.505,0.301,0.683l0.986,0.889c0.199,0.18,0.436,0.257,0.712,0.232c0.276-0.026,0.51-0.146,0.702-0.357
				c0.192-0.214,0.287-0.46,0.283-0.737c-0.003-0.276-0.104-0.505-0.303-0.685L67.746,63.33z"/>
			<path fill="#FFFFFF" d="M68.846,59.199l3.629,2.383l-0.331,0.505l-3.018-1.98l-0.245,0.374l-0.275-0.915L68.846,59.199z"/>
			<path fill="#FFFFFF" d="M73.391,56.254c0.087,0.229,0.049,0.527-0.115,0.894c-0.164,0.367-0.414,0.622-0.749,0.765
				c-0.408,0.172-0.807,0.17-1.196-0.004c-0.389-0.174-0.654-0.47-0.797-0.888s-0.12-0.837,0.067-1.256
				c0.187-0.418,0.483-0.714,0.891-0.888c0.394-0.166,0.826-0.144,1.3,0.066l0.007,0.003c0.468,0.209,0.817,0.529,1.052,0.96
				c0.233,0.434,0.49,0.991,0.77,1.676l-0.325,0.725C73.962,57.384,73.66,56.699,73.391,56.254z M72.434,55.442
				c-0.244-0.108-0.494-0.108-0.749-0.001c-0.255,0.109-0.441,0.295-0.56,0.559c-0.116,0.261-0.131,0.522-0.041,0.785
				c0.088,0.263,0.254,0.448,0.499,0.558c0.244,0.109,0.493,0.109,0.749,0.001c0.254-0.109,0.44-0.294,0.557-0.556
				c0.118-0.263,0.133-0.525,0.045-0.788C72.844,55.737,72.678,55.552,72.434,55.442z"/>
		</g>
	</g>
</g>
</svg>
